<?xml version="1.0" encoding="utf-8"?>
<svg viewBox="0 0 496.2 34" style="enable-background:new 0 0 496.2 34;" xmlns="http://www.w3.org/2000/svg">
  <defs>
    <style type="text/css">
	.st0{fill-rule:evenodd;clip-rule:evenodd;fill:#FFFFFF;}
	.st1{fill:#FFFFFF;}
</style>
  </defs>
  <g transform="matrix(1, 0, 0, 1, 0, 7.105427357601002e-15)">
    <path class="st0" d="M34.3,17.1c0-9.4-7.6-17.1-17-17.1s-17,7.7-17,17.1c0,8.5,6.2,15.6,14.3,16.9V22h-4.3v-4.9h4.3v-3.8&#10;&#9;&#9;c0-4.3,2.5-6.7,6.4-6.7c1.9,0,3.8,0.3,3.8,0.3v4.2h-2.1c-2.1,0-2.8,1.3-2.8,2.7v3.2h4.7L23.9,22h-4v12&#10;&#9;&#9;C28.1,32.7,34.3,25.6,34.3,17.1 M143.3,0c4.6,0,5.2,0,7,0.1c1.8,0.1,3,0.4,4.1,0.8c1.1,0.4,2.2,1.1,3,2c0.9,0.8,1.5,1.9,2,3&#10;&#9;&#9;c0.4,1.1,0.7,2.3,0.8,4.1c0.1,1.8,0.1,2.4,0.1,7s0,5.2-0.1,7c-0.1,1.8-0.4,3-0.8,4.1c-0.4,1.1-1.1,2.2-2,3c-0.8,0.9-1.9,1.5-3,2&#10;&#9;&#9;c-1.1,0.4-2.3,0.7-4.1,0.8c-1.8,0.1-2.4,0.1-7,0.1s-5.2,0-7-0.1c-1.8-0.1-3-0.4-4.1-0.8c-1.1-0.4-2.2-1.1-3-2c-0.9-0.8-1.5-1.9-2-3&#10;&#9;&#9;c-0.4-1.1-0.7-2.3-0.8-4.1c-0.1-1.8-0.1-2.4-0.1-7s0-5.2,0.1-7c0.1-1.8,0.4-3,0.8-4.1c0.4-1.1,1.1-2.2,2-3c0.8-0.9,1.9-1.5,3-2&#10;&#9;&#9;c1.1-0.4,2.3-0.7,4.1-0.8C138.1,0,138.7,0,143.3,0z M143.3,3.1c-4.5,0-5.1,0-6.9,0.1c-1.7,0.1-2.6,0.4-3.2,0.6&#10;&#9;&#9;c-0.7,0.3-1.4,0.7-2,1.3c-0.6,0.5-1,1.2-1.3,2c-0.2,0.6-0.5,1.5-0.6,3.2c-0.1,1.8-0.1,2.3-0.1,6.9c0,4.5,0,5.1,0.1,6.9&#10;&#9;&#9;c0.1,1.7,0.4,2.6,0.6,3.2c0.3,0.8,0.7,1.4,1.3,2c0.5,0.6,1.2,1,2,1.3c0.6,0.2,1.5,0.5,3.2,0.6c1.8,0.1,2.3,0.1,6.9,0.1&#10;&#9;&#9;c4.5,0,5.1,0,6.9-0.1c1.7-0.1,2.6-0.4,3.2-0.6c0.7-0.3,1.4-0.7,2-1.3c0.6-0.5,1-1.2,1.3-2c0.2-0.6,0.5-1.5,0.6-3.2&#10;&#9;&#9;c0.1-1.8,0.1-2.3,0.1-6.9c0-4.5,0-5.1-0.1-6.9c-0.1-1.7-0.4-2.6-0.6-3.2c-0.3-0.7-0.7-1.4-1.3-2c-0.5-0.6-1.2-1-2-1.3&#10;&#9;&#9;c-0.6-0.2-1.5-0.5-3.2-0.6C148.4,3.1,147.8,3.1,143.3,3.1z M143.3,22.7c3.1,0,5.7-2.5,5.7-5.7s-2.5-5.7-5.7-5.7c0,0,0,0,0,0&#10;&#9;&#9;c-3.1,0-5.7,2.5-5.7,5.7C137.6,20.1,140.2,22.7,143.3,22.7z M143.3,8.3c4.8,0,8.7,3.9,8.7,8.7s-3.9,8.7-8.7,8.7s-8.7-3.9-8.7-8.7&#10;&#9;&#9;S138.5,8.3,143.3,8.3z M154.4,7.9c0,1.1-0.9,2-2,2c-1.1,0-2-0.9-2-2s0.9-2,2-2C153.5,5.9,154.4,6.8,154.4,7.9z M97.8,21.9v-10&#10;&#9;&#9;l8.9,5L97.8,21.9z M117.6,8.7c-0.4-1.5-1.5-2.6-3-3C111.9,5,101.3,5,101.3,5S90.7,5,88,5.7c-1.5,0.4-2.6,1.5-3,3&#10;&#9;&#9;c-0.7,2.6-0.7,8.2-0.7,8.2s0,5.5,0.7,8.2c0.4,1.5,1.5,2.6,3,3c2.7,0.7,13.3,0.7,13.3,0.7s10.6,0,13.3-0.7c1.5-0.4,2.6-1.5,3-3&#10;&#9;&#9;c0.7-2.6,0.7-8.2,0.7-8.2S118.3,11.3,117.6,8.7L117.6,8.7z M185.6,1c1.3,0,5.9,0.4,8.1,5.2c0.7,1.6,0.5,4.5,0.4,6.8&#10;&#9;&#9;c0,0.4,0,0.7-0.1,1.1l0,0.1l0.1,0.1c0,0,0.4,0.4,1.2,0.5h0c0.5,0,1.2-0.2,1.8-0.5c0.1,0,0.2-0.1,0.4-0.1c0.2,0,0.3,0,0.5,0.1l0,0&#10;&#9;&#9;c0.4,0.1,0.6,0.4,0.6,0.6c0,0.1-0.1,0.5-1.3,1c-0.2,0.1-0.3,0.1-0.5,0.2c-0.8,0.3-2,0.6-2.4,1.6c-0.2,0.5-0.2,1.2,0.2,1.9&#10;&#9;&#9;c0.1,0.3,2.5,5.5,7.6,6.4c0,0,0,0.1,0,0.1c-0.1,0.2-0.6,0.9-4.1,1.5c-0.5,0.1-0.7,0.7-0.8,1.4c-0.1,0.3-0.1,0.5-0.2,0.8&#10;&#9;&#9;c0,0.1,0,0.1-0.1,0.1h0c-0.2,0-0.4,0-0.7-0.1c-0.7-0.1-1.3-0.2-2-0.2c-0.5,0-1,0-1.5,0.1c-1.1,0.2-1.9,0.8-2.8,1.4&#10;&#9;&#9;c-1.2,0.9-2.5,1.8-4.4,1.8c-0.1,0-0.2,0-0.2,0l0,0l0,0c0,0-0.1,0-0.1,0c-1.9,0-3.2-0.9-4.4-1.8c-0.9-0.6-1.8-1.3-2.8-1.4&#10;&#9;&#9;c-0.5-0.1-1-0.1-1.5-0.1c-0.9,0-1.5,0.1-2,0.2c-0.3,0.1-0.5,0.1-0.7,0.1c-0.1,0-0.1,0-0.2-0.1c-0.1-0.3-0.1-0.5-0.2-0.8&#10;&#9;&#9;c-0.2-0.7-0.3-1.3-0.8-1.4c-3.5-0.5-4-1.2-4.1-1.5c0,0,0-0.1,0-0.1c5.2-0.9,7.5-6,7.6-6.4c0.4-0.7,0.4-1.4,0.2-1.9&#10;&#9;&#9;c-0.4-1-1.6-1.3-2.4-1.6c-0.2,0-0.3-0.1-0.5-0.2c-1-0.4-1.4-0.8-1.3-1.1c0.1-0.3,0.6-0.6,1-0.6c0.1,0,0.2,0,0.2,0&#10;&#9;&#9;c0.7,0.3,1.4,0.5,1.9,0.5c0.9,0,1.3-0.4,1.3-0.5l0.1-0.1l0-0.1c0-0.3,0-0.7-0.1-1.1c-0.1-2.3-0.3-5.2,0.4-6.8&#10;&#9;&#9;c2.2-4.8,6.7-5.2,8.1-5.2L185.6,1C185.6,1,185.6,1,185.6,1z"/>
    <path class="st1" d="M 237.2 0 L 217.39999999999998 0 C 213.49999999999997 0 210.29999999999998 3.2 210.29999999999998 7.1 L 210.29999999999998 26.9 C 210.29999999999998 30.799999999999997 213.49999999999997 34 217.39999999999998 34 L 237.2 34 C 241.1 34 244.29999999999998 30.8 244.29999999999998 26.9 C 244.29999999999998 26.9 244.29999999999998 26.9 244.29999999999998 26.9 L 244.29999999999998 7.1 C 244.3 3.2 241.1 0 237.2 0 Z M 221.6 26.9 L 217.4 26.9 L 217.4 11.3 L 221.6 11.3 L 221.6 26.9 Z M 219.5 9.5 C 218.1 9.5 217 8.4 217 7 C 217 5.6 218.1 4.5 219.5 4.5 C 220.9 4.5 222 5.6 222 7 C 222 8.4 220.9 9.5 219.5 9.5 Z M 238.6 26.9 L 234.4 26.9 L 234.4 19 C 234.4 14.2 228.70000000000002 14.6 228.70000000000002 19 L 228.70000000000002 26.9 L 224.50000000000003 26.9 L 224.50000000000003 11.3 L 228.70000000000002 11.3 L 228.70000000000002 13.8 C 230.70000000000002 10.100000000000001 238.60000000000002 9.9 238.60000000000002 17.3 L 238.60000000000002 26.9 L 238.6 26.9 Z M 318.8 13.2 L 311.3 17.9 L 303.8 13.2 L 303.8 11.299999999999999 L 311.3 16 L 318.8 11.3 L 318.8 13.2 Z M 318.8 9.5 L 303.7 9.5 C 302.7 9.5 301.8 10.3 301.8 11.4 L 301.8 22.700000000000003 C 301.8 23.700000000000003 302.6 24.6 303.7 24.6 L 318.8 24.6 C 319.8 24.6 320.7 23.8 320.7 22.700000000000003 L 320.7 11.3 C 320.7 10.3 319.9 9.5 318.8 9.5 Z M 311.3 0 C 320.7 0 328.3 7.6 328.3 17 C 328.3 26.4 320.7 34 311.3 34 C 301.90000000000003 34 294.3 26.4 294.3 17 C 294.3 7.600000000000001 301.9 0 311.3 0 Z M 353.3 0 C 362.7 0 370.3 7.6 370.3 17 C 370.3 26.4 362.7 34 353.3 34 C 343.90000000000003 34 336.3 26.4 336.3 17 C 336.3 7.600000000000001 344 0 353.3 0 Z M 359 7.1 L 347.7 7.1 L 347.7 10.899999999999999 L 359 10.899999999999999 L 359 7.1 Z M 359.9 15.6 C 359.4 15.6 359 15.2 359 14.7 C 359 14.2 359.4 13.799999999999999 359.9 13.799999999999999 C 360.4 13.799999999999999 360.79999999999995 14.2 360.79999999999995 14.7 C 360.9 15.2 360.4 15.6 359.9 15.6 Z M 357.1 22.2 L 349.6 22.2 L 349.6 17.5 L 357.1 17.5 L 357.1 22.2 Z M 359.9 11.8 L 346.7 11.8 C 345.09999999999997 11.8 343.9 13.100000000000001 343.9 14.600000000000001 L 343.9 20.3 L 347.7 20.3 L 347.7 24.1 L 359 24.1 L 359 20.3 L 362.8 20.3 L 362.8 14.600000000000001 C 362.8 13.1 361.5 11.8 359.9 11.8 Z M 265.9 12.4 L 266.4 12.4 C 266.59999999999997 12.4 266.79999999999995 12.4 267 12.8 C 267.2 13.3 267.7 14.5 267.8 14.600000000000001 C 267.90000000000003 14.700000000000001 267.90000000000003 14.900000000000002 267.8 15.000000000000002 C 267.7 15.200000000000001 267.7 15.300000000000002 267.6 15.400000000000002 L 267.20000000000005 15.800000000000002 C 267.1 15.900000000000002 267.00000000000006 16.1 267.1 16.300000000000004 C 267.2 16.500000000000007 267.70000000000005 17.300000000000004 268.5 18.000000000000004 C 269.4 18.800000000000004 270.2 19.100000000000005 270.5 19.200000000000003 C 270.7 19.300000000000004 270.9 19.300000000000004 271 19.1 C 271.1 18.9 271.6 18.400000000000002 271.8 18.1 C 272 17.900000000000002 272.1 17.900000000000002 272.3 18 C 272.5 18.099999999999998 273.7 18.7 274 18.8 C 274.2 18.900000000000002 274.4 19 274.5 19.1 C 274.6 19.200000000000003 274.6 19.700000000000003 274.4 20.3 C 274.19999999999993 20.9 273.2 21.400000000000002 272.7 21.5 C 272.2 21.5 271.8 21.7 269.8 20.9 C 267.3 19.9 265.7 17.4 265.6 17.2 C 265.50000000000006 17 264.6 15.899999999999999 264.6 14.7 C 264.6 13.5 265.20000000000005 12.899999999999999 265.5 12.7 C 265.5 12.4 265.8 12.4 265.9 12.4 Z M 269.3 7.1 C 263.8 7.1 259.40000000000003 11.5 259.40000000000003 17 C 259.40000000000003 18.9 259.90000000000003 20.6 260.8 22.1 L 259.5 26.900000000000002 L 264.4 25.6 C 265.79999999999995 26.400000000000002 267.5 26.900000000000002 269.29999999999995 26.900000000000002 C 274.79999999999995 26.900000000000002 279.19999999999993 22.5 279.19999999999993 17 C 279.19999999999993 11.5 274.8 7.1 269.3 7.1 Z M 269.3 0 C 278.7 0 286.3 7.6 286.3 17 C 286.3 26.4 278.7 34 269.3 34 C 259.90000000000003 34 252.3 26.4 252.3 17 C 252.3 7.600000000000001 260 0 269.3 0 Z M 395.9 19.1 L 393.5 16.5 L 389 19.1 L 394.1 13.8 L 396.6 16.3 L 401 13.8 C 401 13.8 395.9 19.1 395.9 19.1 Z M 394.9 7.1 C 389.59999999999997 7.1 385.2 11.1 385.2 16.2 C 385.2 18.9 386.4 21.299999999999997 388.59999999999997 23.1 L 388.59999999999997 26.8 L 392.2 24.900000000000002 C 393.09999999999997 25.200000000000003 394 25.200000000000003 394.9 25.200000000000003 C 400.2 25.200000000000003 404.59999999999997 21.200000000000003 404.59999999999997 16.1 C 404.6 11.1 400.3 7.1 394.9 7.1 Z M 395.1 0 C 404.5 0 412.1 7.6 412.1 17 C 412.1 26.4 404.5 34 395.1 34 C 385.70000000000005 34 378.1 26.4 378.1 17 C 378.1 7.600000000000001 385.8 0 395.1 0 Z M 437.3 0 C 427.90000000000003 0 420.3 7.6 420.3 17 C 420.3 26.4 427.90000000000003 34 437.3 34 C 446.7 34 454.3 26.4 454.3 17 C 454.3 7.600000000000001 446.7 0 437.3 0 Z M 432.9 16.7 C 432.9 16.9 432.9 17.2 432.79999999999995 17.4 L 439.9 21.5 C 440.4 21 441.09999999999997 20.7 441.9 20.7 C 443.5 20.7 444.79999999999995 22 444.79999999999995 23.599999999999998 C 444.79999999999995 25.199999999999996 443.49999999999994 26.499999999999996 441.9 26.499999999999996 C 440.3 26.499999999999996 439 25.199999999999996 439 23.599999999999998 C 439 23.4 439 23.2 439.1 22.9 L 432 18.7 C 431.5 19.2 430.8 19.5 430 19.5 C 428.3 19.5 427 18.2 427 16.5 C 427 14.8 428.3 13.5 430 13.5 C 430.8 13.5 431.5 13.8 432 14.3 L 439 10.200000000000001 C 439 10.000000000000002 438.9 9.700000000000001 438.9 9.500000000000002 C 438.9 7.8000000000000025 440.2 6.500000000000002 441.9 6.500000000000002 C 443.59999999999997 6.500000000000002 444.9 7.8000000000000025 444.9 9.500000000000002 C 444.9 11.200000000000003 443.59999999999997 12.500000000000002 441.9 12.500000000000002 C 441.09999999999997 12.500000000000002 440.4 12.200000000000001 439.9 11.700000000000001 L 432.9 15.8 C 432.8 16.2 432.9 16.4 432.9 16.7 Z"/>
    <path class="st1" d="M 63.019 14.47 L 75.041 0.5 L 72.193 0.5 L 61.752 12.631 L 53.414 0.5 L 43.8 0.5 L 56.408 18.848 L 43.8 33.5 L 46.65 33.5 L 57.67 20.69 L 66.476 33.5 L 76.09 33.5 L 63.019 14.47 Z M 59.117 19.012 L 57.835 17.178 L 47.675 2.645 L 52.051 2.645 L 60.253 14.375 L 61.532 16.205 L 72.193 31.449 L 67.813 31.449 L 59.117 19.012 Z"/>
  </g>
  <path class="st1" d="M479.2,0c-9.4,0-17,7.6-17,17s7.6,17,17,17s17-7.6,17-17S488.6,0,479.2,0z M490.4,15.2c-2.3-0.5-4.3-2-5.9-3.6&#10;&#9;v10c0,4.4-3.5,7.9-7.9,7.9s-7.9-3.5-7.9-7.9s3.5-7.9,7.9-7.9c0.4,0,0.8,0,1.3,0.1V18c-0.4-0.1-0.8-0.2-1.3-0.2&#10;&#9;c-2.1,0-3.8,1.7-3.8,3.8s1.7,3.8,3.8,3.8c2.1,0,3.8-1.7,3.8-3.8c0-0.1,0-0.1,0-0.2V13V4.4h3.7l0.6,1c0.8,1.3,3.2,4.5,5.7,5.6&#10;&#9;L490.4,15.2L490.4,15.2z" transform="matrix(1, 0, 0, 1, 0, 7.105427357601002e-15)"/>
</svg>